<?xml version="1.0" encoding="UTF-8" standalone="no"?><!DOCTYPE svg PUBLIC "-//W3C//DTD SVG 1.1//EN" "http://www.w3.org/Graphics/SVG/1.1/DTD/svg11.dtd"><svg width="100%" height="100%" viewBox="0 0 4267 4267" version="1.1" xmlns="http://www.w3.org/2000/svg" xmlns:xlink="http://www.w3.org/1999/xlink" xml:space="preserve" xmlns:serif="http://www.serif.com/" style="fill-rule:evenodd;clip-rule:evenodd;stroke-linejoin:round;stroke-miterlimit:2;"><rect id="hat" x="0" y="0" width="4266.67" height="4266.67" style="fill:none;"/><g id="hat1" serif:id="hat"><g id="src"><path d="M3579.02,3245.63l213.571,-2793.36c-0,-16 -0.949,-31.171 -2.489,-44.208c0.355,-3.911 2.489,-8.889 2.489,-13.037c-0,-213.807 -742.993,-387.2 -1659.26,-387.2c-916.385,0 -1659.26,173.274 -1659.26,387.2c0,4.148 2.015,8.059 2.607,12.089c-1.659,13.037 -2.607,27.259 -2.607,43.259l213.57,2795.26c-415.288,107.851 -687.644,259.674 -687.644,428.444c0,327.348 1020.56,592.593 2133.33,592.593c1112.77,-0 2133.33,-265.245 2133.33,-592.593c-0,-168.77 -272.356,-320.593 -687.645,-428.444Z" style="fill:url(#_Linear1);fill-rule:nonzero;"/><path d="M2078.34,781.63c-579.556,-0 -1019.5,-106.193 -1286.16,-195.082c-62.104,-20.741 -95.763,-87.822 -75.022,-149.926c20.74,-62.103 87.585,-95.763 149.925,-75.022c342.4,114.133 1275.5,342.637 2538.79,-1.896c62.696,-16.83 128.237,19.911 145.422,83.2c17.304,63.17 -20.03,128.355 -83.2,145.54c-522.193,142.46 -989.274,193.186 -1389.75,193.186Z" style="fill:#66757f;fill-opacity:0.1;fill-rule:nonzero;"/><path d="M3579.02,3245.63l52.859,-690.845c-913.185,255.645 -2084.15,261.571 -3000.41,-44.681l46.577,609.422c8.178,36.03 13.393,77.037 13.393,127.526c0,207.407 152.77,335.17 328.415,402.489c528.355,202.429 1654.28,195.081 2228.98,17.659c173.866,-53.689 329.007,-205.393 329.007,-378.193c0,-14.103 1.778,-28.563 2.844,-42.785l-1.659,-0.592Z" style="fill:url(#_Linear2);fill-rule:nonzero;"/><g id="gradient.svg"></g></g></g><defs><linearGradient id="_Linear1" x1="0" y1="0" x2="1" y2="0" gradientUnits="userSpaceOnUse" gradientTransform="matrix(4266.67,0,0,4258.84,4.73695e-13,2137.24)"><stop offset="0" style="stop-color:#141e30;stop-opacity:1"/><stop offset="1" style="stop-color:#243b55;stop-opacity:1"/></linearGradient><linearGradient id="_Linear2" x1="0" y1="0" x2="1" y2="0" gradientUnits="userSpaceOnUse" gradientTransform="matrix(4503.7,-1777.78,764.776,1937.43,355.556,3911.11)"><stop offset="0" style="stop-color:#8a2387;stop-opacity:1"/><stop offset="0.5" style="stop-color:#e94057;stop-opacity:1"/><stop offset="1" style="stop-color:#f27121;stop-opacity:1"/></linearGradient></defs></svg>